<?xml version="1.0" encoding="utf-8"?>
<!-- Uploaded to: SVG Repo, www.svgrepo.com, Generator: SVG Repo Mixer Tools -->
<svg width="800px" height="800px" viewBox="0 0 1024 1024" class="icon"  version="1.1" xmlns="http://www.w3.org/2000/svg"><path d="M512.733035 0.470642C230.09804 0.470642 0.941284 229.627398 0.941284 512.262393c0 188.927292 102.404165 353.93515 254.717188 442.603238 15.385406-43.324038 40.441877-78.622175 71.675002-105.802782 24.723273-21.724494 53.911397-38.859188 86.589767-50.596079-59.521614-51.858066-61.212593-65.952331-40.733426-63.982299a195.341349 195.341349 0 0 1-47.334906-53.249166c-262.359912-19.708647-45.798031-534.844871 187.115529-412.407191 1.845083-0.970438 3.690165-1.903392 5.535248-2.790532 97.193785-47.001708 189.926885 15.114683 246.087367 104.486651 77.993264 122.866672 86.86049 297.362336-59.288376 310.481998-13.423705 22.29926-30.679183 40.87087-50.500284 55.73982 10.212511 3.386122 5.96424 20.04601-28.484243 62.041422 32.341007 11.728561 61.250077 28.750801 85.765102 50.296201 29.562971 25.735362 53.632344 58.713609 69.167689 98.913918 145.973936-90.154983 243.276011-251.5768 243.27601-435.731034 0-282.63916-229.156756-511.795916-511.795916-511.795916z" fill="#F7B970" /><path d="M295.37981 561.055039c-0.054145-17.068055-0.516457-33.582169-0.591426-49.367412-1.103718 17.347108-0.887139 33.786252 0.591426 49.367412z" fill="#F7B970" /><path d="M327.337639 849.058684c-31.233125 27.180607-56.293761 62.478744-71.675002 105.802782l0.00833 0.004165c15.027219-41.683039 39.575563-77.601757 71.666672-105.806947zM712.085252 849.079509c30.316831 26.64749 53.886407 60.192174 69.076059 98.972228l0.09163-0.05831c-15.535345-40.200309-39.608883-73.178557-69.167689-98.913918zM544.378492 779.666086c5.26036 0.478972 89.176214-49.967168 110.425901-42.9242 19.821101-14.864785 37.07658-33.436395 50.500284-55.73982a199.460506 199.460506 0 0 1-15.477035 0.791345c34.82333-50.41282 52.532791-112.629171 42.028732-194.091857l-216.520231 1.062068h-2.598943v-0.012495l-215.695567-1.049573a372.090263 372.090263 0 0 0-2.253249 23.981908c0.074969 15.785244 0.537281 32.299357 0.591426 49.367412 4.469015 47.164142 20.145969 86.668901 43.690555 120.742537a210.231123 210.231123 0 0 1-13.211291-0.570601 195.349679 195.349679 0 0 0 47.334906 53.249166c31.720426 3.044594 116.640039 44.631839 122.308566 44.132043 19.829431 2.482323 28.921565 1.657659 48.875946 1.062067z" fill="#FCE9EA" /><path d="M712.085252 849.079509c-24.515025-21.5454-53.424095-38.56764-85.765102-50.296201l-0.00833 0.012494-212.276125-0.237403-0.108289-0.095794c-32.674205 11.736891-61.866493 28.87575-86.589767 50.596079-32.095274 28.201025-56.639453 64.123908-71.670837 105.806947 75.548426 43.977939 163.358529 69.184349 257.066233 69.184349 98.443277 0 190.380867-27.826177 268.424111-76.002408-15.185488-38.775889-38.755064-72.316408-69.071894-98.968063z" fill="#A6D4AE" /><path d="M626.31182 798.795802l0.00833-0.012494c34.448483-41.995412 38.696754-58.651135 28.484243-62.041422-21.249687-7.042968-105.165541 43.403173-110.425901 42.9242-19.954381 0.595591-29.046514 1.420255-48.880111-1.057902-5.664362 0.499797-90.58814-41.083283-122.308566-44.132043-20.479167-1.970032-18.784023 12.124233 40.733426 63.982299l0.108289 0.095794 212.28029 0.241568z" fill="#DCDBDB" /><path d="M764.593053 370.520068c-56.160482-89.371968-148.893582-151.488359-246.087367-104.486651 96.531555-46.639356 189.497893 15.331262 246.087367 104.486651zM295.37981 561.055039c-1.4744-15.58116-1.695144-32.020304-0.591426-49.367412 0.495632-7.821817 1.195347-15.781079 2.253249-23.981908l215.695567 1.049573V268.823949h0.237403c-232.913561-122.43768-449.475441 392.694379-187.115529 412.407191 4.277426 0.320703 8.679802 0.516457 13.211291 0.570601-23.544586-34.0778-39.221541-73.582559-43.690555-120.746702z" fill="#F08E83" /><path d="M512.733035 488.759457v0.012495h2.598943l216.520231-1.062068c10.504059 81.462686-7.201236 143.683202-42.028732 194.091857a201.547157 201.547157 0 0 0 15.477035-0.791345c146.15303-13.119662 137.28164-187.615326 59.288376-310.481998-56.589474-89.159554-149.555812-151.126007-246.087367-104.486651-1.840918 0.887139-3.690165 1.820093-5.535248 2.790532h-0.237403v219.927178z" fill="#ED7667" /></svg>