<svg xmlns="http://www.w3.org/2000/svg" viewBox="0 0 500 500"><g id="freepik--background-complete--inject-2"><path d="M348.34,47.26c.49-3.52-4.49-6.42-8.22-6.72-1.78-.14-3.63.13-5.32-.46-3.66-1.27-5.12-6-8.69-7.5-2.66-1.13-5.73-.12-8.32,1.18s-5.14,2.94-8,3.12c-2.51.16-5.24-.77-7.44.46-1.64.91-2.5,2.8-4,3.92a9.64,9.64,0,0,1-5.24,1.42,14.65,14.65,0,0,0-5.4.88c-1.67.76-3.05,2.53-2.7,4.33Z" style="fill:#f5f5f5"></path><path d="M79.11,190.28c.48-3.52-4.49-6.42-8.23-6.72-1.78-.14-3.63.13-5.32-.46-3.65-1.27-5.11-6-8.68-7.5-2.67-1.13-5.74-.13-8.33,1.18s-5.14,2.93-8,3.12c-2.51.16-5.24-.77-7.44.46-1.63.91-2.49,2.8-4,3.91a9.58,9.58,0,0,1-5.24,1.42,14.66,14.66,0,0,0-5.4.89c-1.67.76-3.05,2.52-2.7,4.33Z" style="fill:#f5f5f5"></path><path d="M331.2,135.31c.48-3.52-4.49-6.42-8.22-6.72-1.79-.14-3.64.13-5.32-.46-3.66-1.27-5.12-6-8.69-7.5-2.67-1.13-5.74-.13-8.32,1.17s-5.15,2.94-8,3.13c-2.52.16-5.25-.77-7.45.46-1.63.91-2.49,2.8-4,3.91a9.58,9.58,0,0,1-5.24,1.42,14.86,14.86,0,0,0-5.4.88c-1.67.77-3,2.53-2.7,4.34Z" style="fill:#f5f5f5"></path><path d="M119.54,44c.68-4.94-6.3-9-11.54-9.43-2.5-.21-5.1.18-7.47-.65-5.13-1.79-7.18-8.42-12.19-10.53-3.75-1.58-8.06-.18-11.69,1.65s-7.22,4.13-11.27,4.39c-3.53.22-7.36-1.09-10.45.64-2.3,1.28-3.5,3.93-5.62,5.5s-4.78,1.85-7.36,2-5.23.17-7.58,1.24-4.28,3.55-3.79,6.08Z" style="fill:#f5f5f5"></path><path d="M475.33,82.19A18,18,0,0,1,474,83.72a32.56,32.56,0,0,0-3.23,4.38,32,32,0,0,0-4.8,17.05c0,.07,0,.14,0,.21l-.59,0a28.62,28.62,0,0,0-7.84-15.64,40.84,40.84,0,0,0-5.73-4.65,2.23,2.23,0,0,1,.47.22c.29.17.75.38,1.28.74a25.11,25.11,0,0,1,4.27,3.39,28.27,28.27,0,0,1,4.92,6.45,27.85,27.85,0,0,1,3.22,9.4l-.59.05v-.22a31.34,31.34,0,0,1,5-17.27,29,29,0,0,1,3.42-4.32c.44-.48.83-.8,1.08-1A1.7,1.7,0,0,1,475.33,82.19Z" style="fill:#e0e0e0"></path></g><g id="freepik--Device--inject-2"><rect x="51.43" y="120.98" width="405.9" height="268.42" rx="14.57" style="fill:#263238"></rect><path d="M35.57,372.07H475.33a0,0,0,0,1,0,0v5.69a17.8,17.8,0,0,1-17.8,17.8H53.36a17.8,17.8,0,0,1-17.8-17.8v-5.69a0,0,0,0,1,0,0Z" style="fill:#263238"></path><rect x="62.32" y="131.65" width="382.98" height="226.68" style="fill:#fafafa"></rect><polygon points="214.37 372.07 219.82 380.75 296.61 380.75 301.68 372.07 214.37 372.07" style="fill:#455a64"></polygon><path d="M453.84,372.33c0,.15-90.09.27-201.19.27s-201.22-.12-201.22-.27,90.07-.26,201.22-.26S453.84,372.19,453.84,372.33Z" style="fill:#455a64"></path><path d="M342.58,179.19c-9.64-13.7-31.11-19.18-49.36-14.69-18.59,4.57-28.7,17-33.89,33.14h50.78l10-11.95Z" style="fill:#CC311A"></path><path d="M264.77,176.36a99.17,99.17,0,0,1-9-4.9,99.49,99.49,0,0,1-8.74-5.35,101.54,101.54,0,0,1,9,4.9C260.93,173.84,264.84,176.24,264.77,176.36Z" style="fill:#CC311A"></path><path d="M281,162.81a5.55,5.55,0,0,1-.71-1c-.44-.65-1-1.59-1.79-2.76-1.48-2.34-3.49-5.6-5.66-9.23-4.32-7.23-7.69-13.31-7.18-13.47a23.91,23.91,0,0,0,2.1,3.91c1.48,2.47,3.4,5.71,5.53,9.3l5.53,9.3,1.64,2.84A5.24,5.24,0,0,1,281,162.81Z" style="fill:#CC311A"></path><path d="M301.36,156.69a96.14,96.14,0,0,1-.26-10.1,96.26,96.26,0,0,1,.26-10.11,99.65,99.65,0,0,1,.26,10.11A99.53,99.53,0,0,1,301.36,156.69Z" style="fill:#CC311A"></path><path d="M326.45,143.59a51.07,51.07,0,0,1-2.2,7,51.81,51.81,0,0,1-2.7,6.83,52.69,52.69,0,0,1,2.21-7A52.24,52.24,0,0,1,326.45,143.59Z" style="fill:#CC311A"></path><path d="M82.34,118.6l-3.19,29.88s-.38,3.86-2.32,2.74c-2.2-1.27-4.06-7.1-4.06-7.1l-.45-1-2.1.88,5.14,11,2.7,8.72,1.37,21.44-4.19,98.95,12,0s-.71-93.87-.4-98.21,18-17.14,18-17.14l0-2.61L86.51,178.31l5.34-59.72Z" style="fill:#263238"></path><polyline points="72.73 144.03 68.2 133.47 75.04 117.69 73.88 117.69 66.56 132.43 64.04 120.08 62.78 120.06 64.68 133.47 68.2 140.33 59.41 138.95 58.81 140.33 69 142.07 70.56 144.55" style="fill:#263238"></polyline><path d="M241.83,171.32c-.06-1.5-.36-6.68-.11-13.12.9-23.64,2.86-71,2.86-71H230.24V119s1.12,55.37,0,66.93c-1,9.87-5.63,12.73-5.63,12.73l14.9,5,9.77-5.77C243.37,194.19,242.11,178.35,241.83,171.32Z" style="fill:#ba7f72"></path><path d="M247,145.38c-.23.31-3.17,3.17-3.85,6.26s-2,7.61-2,7.61l-.3-8.82,1.21-.07,1.84-3.62V144.1H245v1.81l1.88-1.88Z" style="fill:#ba7f72"></path><path d="M259.18,137.76a4.75,4.75,0,0,0-2.55-3.5,3.86,3.86,0,0,0-4.2.61,7.66,7.66,0,0,0-3.48-4.65,6,6,0,0,0-5.71-.18,5,5,0,0,0-2.56,5,4.12,4.12,0,0,0-4.34,3.56,5.86,5.86,0,0,0,2.55,5.36A8.37,8.37,0,0,0,241,145a6.81,6.81,0,0,0,5.87-.73h0a3.86,3.86,0,0,0,7.19.06c1.65.3,3.25-.86,4.13-2.28A6.25,6.25,0,0,0,259.18,137.76Z" style="fill:#455a64"></path><path d="M273.21,71.6A15.59,15.59,0,0,0,258.42,59c.07-5.91-5.55-10.53-11.31-11.87-11.74-2.74-24.88,5.94-27,17.82a12,12,0,0,0-9,22.19,15.44,15.44,0,0,0,16.49,21.53,10.73,10.73,0,0,0,18.42.06l.46.62a15.46,15.46,0,0,0,16.9-21A15.58,15.58,0,0,0,273.21,71.6Z" style="fill:#455a64"></path><path d="M187.16,280.74l92-.3a18.5,18.5,0,0,1,8.75,8.17,61.39,61.39,0,0,0,9.62,13.05A47,47,0,0,1,305.06,312l2.85,5.22-101.07.53Z" style="fill:#fff"></path><polyline points="214.6 204.07 232.58 198.05 216.21 191.54 185.81 187.63 169.45 169.15 148.75 169.15 96.09 206.57 90.3 247.72 62.32 265.73 62.32 311.9" style="fill:none"></polyline><polygon points="232.58 198.05 216.21 191.54 185.81 187.63 169.45 169.15 148.75 169.15 96.95 206.03 91.16 247.18 63.18 265.19 63.19 312.77 197.66 299.26 214.6 204.07 232.58 198.05" style="fill:#ebebeb"></polygon><path d="M62.32,311.9s0-.28,0-.82,0-1.35,0-2.4c0-2.12,0-5.22,0-9.2,0-8-.05-19.55-.08-33.75v-.1l.09-.06,28-18-.11.17c1.77-12.61,3.72-26.52,5.78-41.16v-.11l.09-.06,15.18-10.79L148.61,169l.06,0h20.88l.07.08L186,187.5l-.13-.06,30.4,4h0l12.14,4.89,3.13,1.27c.7.29,1.05.46,1.05.46s-.37-.12-1.08-.39l-3.15-1.22-12.18-4.78h0l-30.42-3.83h-.07l-.05-.06L169.28,169.3l.17.08-20.7,0,.14-.05L111.42,196,96.24,206.78l.11-.18c-2.07,14.64-4,28.55-5.82,41.15l0,.11-.09.06-28,18,.09-.17c0,14.2-.06,25.74-.08,33.75,0,4,0,7.08,0,9.2q0,1.57,0,2.4C62.34,311.62,62.32,311.9,62.32,311.9Z" style="fill:#263238"></path><path d="M211.85,275.57a8.8,8.8,0,0,0-15.82-5.1,10.84,10.84,0,0,0-17.32-4.14V280.5H219C219.6,277.34,214.46,273.86,211.85,275.57Z" style="fill:#455a64"></path><polygon points="93.06 285.11 106.11 257.19 139.01 246.35 178.11 262.61 196.8 300.01 93.06 285.11" style="fill:#e0e0e0"></polygon><polygon points="178.11 262.61 156.34 267.9 139.01 246.35 178.11 262.61" style="fill:#ebebeb"></polygon><path d="M196.8,299.8a.62.62,0,0,1-.11-.17l-.28-.51c-.24-.48-.59-1.14-1-2l-3.88-7.58c-3.31-6.55-8-15.82-13.59-26.83l.12.11-30.56-12.68-8.55-3.56h.18l-32.91,10.79.12-.11-9.58,20.29L94,283.16l-.71,1.46c-.17.33-.27.49-.27.49s.06-.18.21-.51l.66-1.49,2.57-5.64c2.27-4.9,5.5-11.88,9.42-20.37l0-.08.08,0,32.89-10.88.09,0,.09,0,8.55,3.55L178.2,262.4l.08,0,0,.08c5.51,11.05,10.15,20.35,13.42,26.92l3.76,7.63c.42.87.75,1.54,1,2l.24.52A.9.9,0,0,1,196.8,299.8Z" style="fill:#263238"></path><polyline points="185.81 358.6 203.96 313.57 338.51 313.57 370.14 358.6 185.81 358.6" style="fill:#fff"></polyline><path d="M227.13,313.62c-3.1-.1-6.3-.17-9.15,1s-5.28,4-5,7.08,2.88,5.15,5.46,6.62a32.43,32.43,0,0,0,13.1,4.09,3.17,3.17,0,0,1,2.14.7c.81.86.29,2.38-.71,3a6.54,6.54,0,0,1-3.43.66,81.13,81.13,0,0,0-22.48,3.45c-2,.59-4.32,1.93-3.94,3.93a4.13,4.13,0,0,0,1.07,1.82" style="fill:#fff"></path><path d="M62.32,307.62,80.88,289.1,96,284.17,196.8,300s24.43,8.47,27.76,20.62a12.09,12.09,0,0,0,.45,1.43s32.53,12.93,34.51,15.58-50.17,7.14-50.17,7.14,33.6,11,17,13c-17.51,2.11-164.07.48-164.07.48V307.62Z" style="fill:#455a64"></path><path d="M196.39,89.27c5.16-3.67,6.26-11.44,3.43-17.11s-8.74-9.3-14.9-10.79-12.59-1.09-18.9-.51c.71-13.54-8.57-27-21.49-31.1S116.26,31.22,109,42.67A37.18,37.18,0,0,0,59.1,67.06,21.16,21.16,0,0,0,35.67,98.49a21.68,21.68,0,0,0,21.42,10c-2.49,7.26,3.51,15.24,10.8,17.6s15.24.63,22.62-1.43A18.39,18.39,0,0,0,116.56,140l25.08-2.63c12.46,6.86,20.2,4.36,26.67-8.31,7.48.26,15.17-.61,21.9-3.89s12.4-9.25,14.08-16.55S203,92.88,196.39,89.27Z" style="fill:#455a64"></path><path d="M117.29,320.64l-.78-156.49L94.74,147.21,96.18,144l21.11,14.29V114.68l21.12,2.48s-1.86,181.46,3.11,190.16,14.28,13.32,14.28,13.32Z" style="fill:#ba7f72"></path><path d="M135.88,143.71c.13-.4,6-9.89,8.67-14.76h2.3a71,71,0,0,0-4.95,10.43l9-10.43h1.49s-12.4,14.49-14.33,19.78Z" style="fill:#ba7f72"></path><path d="M122.46,312.63s0-.17-.08-.5-.11-.84-.19-1.46c-.15-1.32-.38-3.21-.67-5.64-.55-4.9-1.35-12-2-20.78a262.53,262.53,0,0,1-.79-31,167.92,167.92,0,0,1,1.68-18.22c1-6.28,2.34-12.71,3.68-19.29a179.35,179.35,0,0,0,3.11-19.35c.27-3.15.4-6.26.36-9.3a88,88,0,0,0-.66-8.89c-.7-5.78-1.78-11.21-2.74-16.3s-1.84-9.85-2.35-14.24a84.3,84.3,0,0,1-.68-11.88,56.8,56.8,0,0,1,.86-8.95,44.13,44.13,0,0,1,1.36-5.52c.21-.59.37-1.06.49-1.39s.18-.47.18-.47a4.43,4.43,0,0,1-.13.49c-.1.33-.25.8-.44,1.4a46.71,46.71,0,0,0-1.26,5.52,57.77,57.77,0,0,0-.77,8.92,87.8,87.8,0,0,0,.75,11.84c.54,4.37,1.43,9.11,2.41,14.2s2.08,10.52,2.8,16.32a89,89,0,0,1,.67,8.94,92.65,92.65,0,0,1-.34,9.36,179,179,0,0,1-3.11,19.4c-1.34,6.59-2.72,13-3.68,19.27a169.43,169.43,0,0,0-1.71,18.16,270.66,270.66,0,0,0,.68,30.91c.65,8.79,1.39,15.88,1.89,20.79.24,2.43.43,4.33.57,5.65,0,.62.1,1.11.13,1.47S122.46,312.63,122.46,312.63Z" style="fill:#8b5d54"></path><path d="M149.94,320.52l-.43.06c-.29,0-.72.07-1.28.08a18.18,18.18,0,0,1-4.87-.63,21.79,21.79,0,0,1-7-3.35,27.07,27.07,0,0,1-7.09-7.45,41.22,41.22,0,0,1-4.91-11.47,100.87,100.87,0,0,1-2.57-14.1,146.4,146.4,0,0,1-.63-32.77,15.47,15.47,0,0,1,1.34-5.54,5.59,5.59,0,0,1,1.86-2.21,4,4,0,0,1,2.82-.59,5,5,0,0,1,2.51,1.33A9.91,9.91,0,0,1,131.4,246a29.79,29.79,0,0,1,2.17,4.89,38.88,38.88,0,0,1,1.62,19.58,11.73,11.73,0,0,1-1.35,4.36,2.36,2.36,0,0,1-2,1.13,2.72,2.72,0,0,1-1.94-1.11,7.47,7.47,0,0,1-1.07-1.84,20.25,20.25,0,0,1-.77-1.89,21.7,21.7,0,0,1,1.14-16.61l.11-.21.13.2a16,16,0,0,1,2.57,9,12.05,12.05,0,0,1-.44,3.27,1.67,1.67,0,0,1,0-.21l.11-.62a18.37,18.37,0,0,0,.17-2.44,16.08,16.08,0,0,0-2.66-8.82h.23a21.23,21.23,0,0,0-1.92,12.62,21.59,21.59,0,0,0,.92,3.73,19.46,19.46,0,0,0,.76,1.85,6.91,6.91,0,0,0,1,1.74,2.29,2.29,0,0,0,1.63.95,1.9,1.9,0,0,0,1.62-.95,11.41,11.41,0,0,0,1.27-4.19,38.59,38.59,0,0,0-1.65-19.33,29.74,29.74,0,0,0-2.13-4.8,10.13,10.13,0,0,0-1.64-2,4.54,4.54,0,0,0-2.25-1.2,3.49,3.49,0,0,0-2.45.51,5.21,5.21,0,0,0-1.67,2,14.7,14.7,0,0,0-1.29,5.37,147.28,147.28,0,0,0,.59,32.65,101.1,101.1,0,0,0,2.51,14,40.87,40.87,0,0,0,4.8,11.39,26.8,26.8,0,0,0,7,7.41,22,22,0,0,0,6.89,3.4,18.93,18.93,0,0,0,4.82.71c.56,0,1,0,1.27,0Z" style="fill:#8b5d54"></path><path d="M127.22,144.39s0,0,.12-.14l.41-.4,1.73-1.63.07-.06,0,.09a14,14,0,0,1,.95,4.28,14.22,14.22,0,0,1-1,6.19,6.5,6.5,0,0,1-.88,1.66,1.9,1.9,0,0,1-1.85.77,2.49,2.49,0,0,1-1.58-1.41,6.38,6.38,0,0,1-.63-2.1,35.56,35.56,0,0,1-.14-9.49,36.31,36.31,0,0,1,1-5.17,12.46,12.46,0,0,1,1-2.61,5.26,5.26,0,0,1,1.9-2.19,2.94,2.94,0,0,1,3,0,5.2,5.2,0,0,1,1.93,2.35,14.23,14.23,0,0,1,.94,2.9c.28,1,.45,2,.66,3a58.62,58.62,0,0,1,.72,6.3c.1,2.15.12,4.34.05,6.55-.14,4.43-.59,9-1.06,13.56a275.64,275.64,0,0,0-1.52,31.2c.08,9.6.67,18.24,1.41,25.47s1.62,13,2.29,17.05c.31,2,.62,3.56.79,4.61l.19,1.2a1.65,1.65,0,0,1,.05.42s0-.14-.1-.41-.14-.68-.25-1.19c-.2-1.05-.54-2.59-.88-4.6-.74-4-1.65-9.81-2.45-17s-1.42-15.89-1.53-25.51a269.21,269.21,0,0,1,1.48-31.25c1-9.19,1.78-18.13.33-26.27-.21-1-.38-2-.65-3a13.66,13.66,0,0,0-.9-2.82,4.77,4.77,0,0,0-1.74-2.15,2.48,2.48,0,0,0-2.51,0,4.81,4.81,0,0,0-1.73,2,12.3,12.3,0,0,0-.94,2.52,35.19,35.19,0,0,0-1,14.49,6.2,6.2,0,0,0,.58,2,2.19,2.19,0,0,0,1.34,1.25,1.59,1.59,0,0,0,1.55-.65,6,6,0,0,0,.85-1.57,14.23,14.23,0,0,0,1-6.07,14.39,14.39,0,0,0-.87-4.24l.11,0-1.77,1.57-.43.37Z" style="fill:#8b5d54"></path><path d="M145,101.08c-5.28-3.37-12.14-3.32-18.17-1.61C125.31,92.13,117.41,86.76,110,88S96.93,97,97.89,104.39h0c-.11,6.31,2,12.38,6.53,15.42a20.05,20.05,0,0,0,15.49,2.94c.52,2.54,2.86,4.42,5.38,5a15.67,15.67,0,0,0,7.68-.43,43,43,0,0,0,10.64-4.28,16.5,16.5,0,0,0,6.45-5.74C153.18,111.91,150.32,104.45,145,101.08Z" style="fill:#455a64"></path><polygon points="348.79 167.04 342.65 163.51 340.61 152.93 338.89 153.4 340.38 163.4 334.49 159.42 333.2 160.9 341 165.86 348.79 169.51 348.79 167.04" style="fill:#455a64"></polygon><rect x="347.94" y="151.6" width="4.51" height="58.43" style="fill:#455a64"></rect><path d="M349,40c0,.62-12.09,38.73-12.09,38.73l6.05-6.14-8.71,26.64,5.74-8-6.77,33.4,3.28-3.48-5.74,23.57,4.92-6.15-4.92,17.62,38.94-2.87-9.22-33.2,5.57,6.15-7.21-24.18,3.69,2L354.09,73,358,75.65Z" style="fill:#455a64"></path><path d="M350.27,108a3,3,0,0,1-.19.56l-.61,1.55-2.18,5.34-.1.23-.12-.22a27.53,27.53,0,0,1-1.59-3.53c-.17-.48-.33-.95-.47-1.4h.24c-1.07,2.74-2.12,5.12-2.92,6.81-.39.85-.72,1.53-1,2l-.27.53c-.07.11-.1.18-.11.17a4.06,4.06,0,0,1,.3-.74c.23-.51.52-1.19.89-2,.75-1.71,1.77-4.11,2.84-6.85l.13-.33.1.34c.14.45.3.92.47,1.39a31,31,0,0,0,1.56,3.51h-.21c.91-2.13,1.69-4,2.26-5.31.28-.62.5-1.13.67-1.52A3,3,0,0,1,350.27,108Z" style="fill:#263238"></path><path d="M354.42,93.8a2.07,2.07,0,0,1-.22-.41l-.56-1.16c-.48-1-1.19-2.38-2.11-3.92l.23,0-.63,2.39c-.13.52-.27,1-.4,1.53l-.09.34-.14-.32c-.83-1.85-1.55-3.48-2.06-4.65-.23-.55-.42-1-.58-1.38a2,2,0,0,1-.18-.51,2.23,2.23,0,0,1,.26.48l.65,1.34c.55,1.16,1.3,2.77,2.14,4.61l-.24,0c.13-.49.26-1,.4-1.52.22-.84.43-1.65.63-2.39l.08-.29.14.25a42.73,42.73,0,0,1,2,4c.22.51.39.92.5,1.2A2.72,2.72,0,0,1,354.42,93.8Z" style="fill:#263238"></path><path d="M348.9,64.6a9.93,9.93,0,0,1-.68,1.35c-.46.83-1.11,2-1.85,3.29l-.17.3-.07-.34q-.09-.57-.21-1.17c-.12-.69-.23-1.36-.34-2l.22,0c-.7,1.11-1.3,2-1.74,2.71a6.23,6.23,0,0,1-.73,1,8.15,8.15,0,0,1,.6-1.11c.41-.69,1-1.64,1.66-2.75l.17-.27.06.31c.11.62.23,1.28.35,2q.1.6.21,1.17l-.23,0c.76-1.3,1.43-2.44,1.92-3.25A11.41,11.41,0,0,1,348.9,64.6Z" style="fill:#263238"></path><path d="M219.14,198.12l93.81.67s-6.2,5.05-7.66,18.67c-1.38,12.85-19.64,65.08-19.64,65.08h-88s9.66-64.27,10.84-70.73C211.1,197.67,219.14,198.12,219.14,198.12Z" style="fill:#fff"></path><path d="M233.16,271.19c-.14,0,2.34-11.34,5.53-25.24s5.9-25.16,6-25.12-2.33,11.33-5.53,25.24S233.3,271.22,233.16,271.19Z" style="fill:#e0e0e0"></path><path d="M244.28,256.3c-.14,0,1.87-8.86,4.49-19.72s4.86-19.63,5-19.59-1.87,8.86-4.49,19.71S244.42,256.33,244.28,256.3Z" style="fill:#e0e0e0"></path><path d="M258.11,218.39a27.12,27.12,0,0,1-1.17,5.15,26.77,26.77,0,0,1-1.68,5,26.72,26.72,0,0,1,1.18-5.14A27,27,0,0,1,258.11,218.39Z" style="fill:#e0e0e0"></path><path d="M200,267.25a1.81,1.81,0,0,1,0-.38c0-.27.07-.63.12-1.1.12-1,.29-2.41.52-4.23.46-3.68,1.16-9,2.08-15.64s2-14.55,3.5-23.37c.37-2.21.76-4.47,1.19-6.78a67.09,67.09,0,0,1,1.62-7,19.34,19.34,0,0,1,3.53-6.65,12.15,12.15,0,0,1,6.55-4.19h0l8.26-.05,58.49-.23h17.72l4.82,0,1.25,0,.43,0a2.43,2.43,0,0,1-.43,0l-1.25,0-4.82.07-17.72.18-58.49.38-8.26,0h0a9.86,9.86,0,0,0-3.44,1.5,13.09,13.09,0,0,0-2.79,2.51,18.61,18.61,0,0,0-3.44,6.48,63.15,63.15,0,0,0-1.62,7c-.44,2.31-.84,4.56-1.21,6.77-1.48,8.81-2.64,16.72-3.61,23.34s-1.71,11.92-2.24,15.62c-.27,1.81-.47,3.23-.62,4.21-.07.47-.12.83-.16,1.1A1.73,1.73,0,0,1,200,267.25Z" style="fill:#263238"></path><polyline points="445.3 286.94 445.3 316.01 307.1 313.46 281.86 280.53 256.46 280.5 261.63 273.49 266.34 273.08 277.39 251.6 294.16 249.14 305.01 203.73 320.13 185.69 377.22 169.15 406.48 197.38 445.3 262.94" style="fill:#ebebeb"></polyline><path d="M445.3,262.94s-.07-.09-.2-.29l-.54-.9c-.49-.8-1.2-2-2.12-3.5L434.49,245l-28.2-47.45,0,.05-29.27-28.22.24.07L345,178.77l-24.75,7.17.13-.08-15.14,18,.06-.1-10.89,45.41,0,.13-.14,0-16.78,2.43.13-.09-11.11,21.45,0,.05h-.06l-4.71.39.06,0-3.92,5.25-1,1.29-.34.42s.1-.16.31-.45.52-.74.94-1.31l3.86-5.3,0,0h0l4.7-.43-.08,0,11-21.51,0-.08h.08L294.13,249l-.16.15c3.14-13.22,6.79-28.58,10.8-45.43v-.06l0,0,15.11-18,.05-.06.08,0,24.75-7.18,32.34-9.36.15,0,.1.1,29.24,28.25,0,0v0l28.05,47.55,7.84,13.36,2.06,3.54.52.91C445.25,262.83,445.3,262.94,445.3,262.94Z" style="fill:#263238"></path><path d="M400.77,347.82l.57-114.31,15.91-12.37-1.05-2.37L400.77,229.2V197.37l-15-11.42s.92,145.79-2.71,152.14-10.44,9.73-10.44,9.73Z" style="fill:#ba7f72"></path><path d="M386.52,191.48c-.13-.39-5.77-9.56-8.39-14.27h-2.22a69.3,69.3,0,0,1,4.78,10.08L372,177.21h-1.44s12,14,13.85,19.12Z" style="fill:#ba7f72"></path><path d="M397,342a1.49,1.49,0,0,1,0-.37c0-.27.05-.62.09-1.08.1-1,.23-2.35.41-4.12.35-3.58.88-8.77,1.35-15.18a196,196,0,0,0,.48-22.58,124.05,124.05,0,0,0-1.25-13.26c-.7-4.57-1.71-9.25-2.69-14.07a128.71,128.71,0,0,1-2.27-14.18q-.3-3.48-.25-6.84c.05-2.24.24-4.42.5-6.54.53-4.24,1.33-8.21,2.05-11.93s1.37-7.18,1.77-10.36a51.72,51.72,0,0,0,0-15.16,35.12,35.12,0,0,0-.9-4c-.14-.43-.24-.77-.32-1a1.48,1.48,0,0,1-.09-.36,1.85,1.85,0,0,1,.14.34c.09.26.21.59.37,1a31.14,31.14,0,0,1,1,4,50.16,50.16,0,0,1,.16,15.23c-.37,3.21-1,6.68-1.71,10.4s-1.48,7.69-2,11.91a61.88,61.88,0,0,0-.48,6.49,67.71,67.71,0,0,0,.26,6.78,134,134,0,0,0,2.27,14.13c1,4.81,2,9.5,2.69,14.09a122.31,122.31,0,0,1,1.22,13.32,192.15,192.15,0,0,1-.59,22.62c-.52,6.42-1.11,11.6-1.52,15.18-.22,1.76-.38,3.14-.5,4.12-.06.45-.11.8-.15,1.07A1.71,1.71,0,0,1,397,342Z" style="fill:#8b5d54"></path><path d="M392.75,25c0,1-19.29,61.78-19.29,61.78L383.11,77l-13.89,42.49,9.15-12.75L367.58,160l5.23-5.55L363.66,192l7.84-9.8-7.84,28.11,62.1-4.58-14.71-53,8.89,9.81L408.44,124l5.88,3.27-13.4-49.69,6.21,4.25Z" style="fill:#455a64"></path><path d="M394.83,133.5a5.47,5.47,0,0,1-.31.91c-.24.62-.57,1.45-1,2.46l-3.47,8.51-.16.38-.19-.36a42,42,0,0,1-2.53-5.63c-.28-.76-.53-1.51-.75-2.23h.38c-1.72,4.37-3.39,8.17-4.66,10.87-.63,1.35-1.15,2.43-1.53,3.17l-.44.84c-.1.19-.16.29-.17.28a9.57,9.57,0,0,1,.48-1.19c.36-.81.83-1.89,1.42-3.21,1.19-2.72,2.82-6.54,4.52-10.91l.21-.53.17.55c.22.71.47,1.46.75,2.21a45.34,45.34,0,0,0,2.49,5.59l-.35,0,3.61-8.46c.44-1,.8-1.81,1.08-2.42A5.42,5.42,0,0,1,394.83,133.5Z" style="fill:#263238"></path><path d="M401.45,110.81a3.37,3.37,0,0,1-.35-.65l-.89-1.86c-.77-1.58-1.9-3.79-3.37-6.25l.36,0c-.31,1.2-.64,2.49-1,3.82-.22.83-.43,1.65-.64,2.43l-.14.55-.24-.52c-1.32-2.94-2.47-5.54-3.27-7.4-.37-.89-.68-1.62-.93-2.2a3.45,3.45,0,0,1-.29-.82,4.27,4.27,0,0,1,.42.76c.27.57.62,1.29,1,2.15.87,1.83,2.06,4.41,3.4,7.35l-.38,0c.21-.78.42-1.6.64-2.43.35-1.34.69-2.62,1-3.82l.12-.45.24.4a63.82,63.82,0,0,1,3.25,6.35c.35.8.62,1.45.79,1.9A3.18,3.18,0,0,1,401.45,110.81Z" style="fill:#263238"></path><path d="M392.65,64.24a17.26,17.26,0,0,1-1.09,2.16c-.73,1.32-1.76,3.16-3,5.25l-.27.47-.09-.54c-.11-.6-.23-1.23-.34-1.87-.19-1.11-.38-2.17-.55-3.16l.35.07c-1.11,1.76-2.07,3.26-2.77,4.32a14.79,14.79,0,0,1-1.16,1.64,12,12,0,0,1,1-1.77c.64-1.09,1.56-2.62,2.64-4.39l.27-.43.09.5c.18,1,.37,2,.57,3.15.11.64.22,1.27.33,1.87l-.37-.06c1.21-2.08,2.28-3.9,3.07-5.19A15.66,15.66,0,0,1,392.65,64.24Z" style="fill:#263238"></path><path d="M376.93,347.74a15.11,15.11,0,0,0,4.76-.53,18.21,18.21,0,0,0,10.07-7.9,30,30,0,0,0,3.5-8.3,75.36,75.36,0,0,0,1.82-10.25,107.89,107.89,0,0,0,.42-23.84,10.68,10.68,0,0,0-.93-3.89,3.64,3.64,0,0,0-1.2-1.45,2.47,2.47,0,0,0-1.74-.36,4.56,4.56,0,0,0-2.79,2.34,22.1,22.1,0,0,0-1.55,3.48,28.17,28.17,0,0,0-1.21,14.1,8.4,8.4,0,0,0,.91,3,1.36,1.36,0,0,0,1.14.67,1.62,1.62,0,0,0,1.15-.67,5.28,5.28,0,0,0,.74-1.26,12,12,0,0,0,.55-1.35,15.1,15.1,0,0,0,.67-2.71,15.48,15.48,0,0,0-1.38-9.2l.23,0a11.59,11.59,0,0,0-1.95,6.41,14.16,14.16,0,0,0,.11,1.79,2.51,2.51,0,0,1,.08.61,8.5,8.5,0,0,1-.34-2.39,11.63,11.63,0,0,1,1.87-6.57l.13-.2.11.21a15.72,15.72,0,0,1,1.51,9.38,13.15,13.15,0,0,1-2,5.52,2,2,0,0,1-1.46.84,1.77,1.77,0,0,1-1.5-.85,8.58,8.58,0,0,1-1-3.21,28.26,28.26,0,0,1,1.18-14.33,20.7,20.7,0,0,1,1.59-3.59,7.4,7.4,0,0,1,1.27-1.59,3.77,3.77,0,0,1,1.87-1,3,3,0,0,1,2.11.44,4.28,4.28,0,0,1,1.38,1.64,11.15,11.15,0,0,1,1,4.08,106.34,106.34,0,0,1-.46,23.95,74.65,74.65,0,0,1-1.89,10.3,29.84,29.84,0,0,1-3.6,8.39,18.2,18.2,0,0,1-10.33,7.89,13.26,13.26,0,0,1-3.57.45c-.41,0-.72-.05-.93-.07A1.3,1.3,0,0,1,376.93,347.74Z" style="fill:#8b5d54"></path><path d="M393.52,219.07a2.46,2.46,0,0,1-.43-.35l-1.3-1.14.11,0a10.46,10.46,0,0,0,.14,7.52,4.41,4.41,0,0,0,.61,1.13,1.12,1.12,0,0,0,1.09.46,1.56,1.56,0,0,0,.95-.89,4.29,4.29,0,0,0,.42-1.44,25.55,25.55,0,0,0-.71-10.57,8.54,8.54,0,0,0-.67-1.83,3.55,3.55,0,0,0-1.25-1.43,1.73,1.73,0,0,0-1.77,0,3.55,3.55,0,0,0-1.25,1.54,10.91,10.91,0,0,0-.65,2c-.2.71-.31,1.44-.47,2.18-1.06,5.93-.45,12.46.25,19.17a195.66,195.66,0,0,1,1.07,22.84c-.08,7-.55,13.35-1.13,18.63s-1.27,9.53-1.81,12.45c-.26,1.47-.51,2.6-.66,3.36l-.19.87a1.26,1.26,0,0,1-.08.29,1.14,1.14,0,0,1,0-.3l.14-.88c.12-.77.34-1.9.56-3.37.48-2.93,1.1-7.18,1.65-12.46s.95-11.58,1-18.6a202,202,0,0,0-1.11-22.78c-.7-6.7-1.3-13.28-.21-19.31.16-.74.28-1.49.48-2.21a10.81,10.81,0,0,1,.69-2.13,3.93,3.93,0,0,1,1.44-1.74,2.22,2.22,0,0,1,2.24,0,3.93,3.93,0,0,1,1.41,1.63,8.81,8.81,0,0,1,.7,1.91,25.13,25.13,0,0,1,.75,3.79,26.24,26.24,0,0,1-.11,6.95,4.52,4.52,0,0,1-.47,1.54,1.91,1.91,0,0,1-1.18,1.06,1.44,1.44,0,0,1-1.39-.58,4.57,4.57,0,0,1-.65-1.23,10.39,10.39,0,0,1,0-7.67l0-.09.07.07,1.26,1.19A2.45,2.45,0,0,1,393.52,219.07Z" style="fill:#8b5d54"></path><path d="M361.68,220.36c-7.05,4.43-12.16,11.48-15.62,19.06s-5.42,15.74-7.35,23.84l1.12,40.87c7.36-15.31,12.81-33,13.27-50l-5.75,0c3.78-.9,6.76-3.94,8.53-7.4s2.51-7.34,3.22-11.16l-6.88,1.62A25.93,25.93,0,0,0,361.68,220.36Z" style="fill:#455a64"></path><g style="opacity:0.30000000000000004"><path d="M361.68,220.36c-7.05,4.43-12.16,11.48-15.62,19.06s-5.42,15.74-7.35,23.84l1.12,40.87c7.36-15.31,12.81-33,13.27-50l-5.75,0c3.78-.9,6.76-3.94,8.53-7.4s2.51-7.34,3.22-11.16l-6.88,1.62A25.93,25.93,0,0,0,361.68,220.36Z"></path></g><path d="M339.35,313.76s-20.48-20.73-22-42l7.53-.63s-8.62-4.69-8.23-7.76-.34-14.47-.34-14.47l7,1.15s-5.37-2.15-6.35-6.18-.42-23.12-.42-23.12,9.12,8.11,12.45,16.92,11,18.78,11.29,46.46S339.35,313.76,339.35,313.76Z" style="fill:#455a64"></path><path d="M349,315.08s19-15.12,22.1-32.65l-6.18-1.14s7.53-3.18,7.45-5.75,1.48-12,1.48-12l-5.91.37s4.63-1.33,5.78-4.59,2.25-19.14,2.25-19.14-8.23,6-11.72,13S353.57,267.87,351,290.79,349,315.08,349,315.08Z" style="fill:#455a64"></path><path d="M323.23,239.74a1,1,0,0,1,.08.22c.06.17.13.39.22.68l.81,2.59c.35,1.13.77,2.51,1.23,4.13s1,3.44,1.56,5.48c1.14,4.06,2.39,8.93,3.72,14.36s2.64,11.42,3.91,17.74,2.34,12.36,3.24,17.87,1.6,10.49,2.12,14.69c.28,2.09.49,4,.68,5.65s.35,3.11.46,4.28.19,2.07.26,2.71c0,.29,0,.53.05.7a.62.62,0,0,1,0,.24,2.32,2.32,0,0,1,0-.23l-.09-.71-.32-2.7c-.12-1.17-.29-2.6-.51-4.27s-.43-3.56-.72-5.65c-.55-4.18-1.3-9.15-2.19-14.66s-2-11.55-3.26-17.86-2.61-12.3-3.89-17.73S328,257,326.91,252.9c-.53-2-1.06-3.88-1.51-5.49s-.84-3-1.18-4.14-.57-2-.75-2.61c-.08-.29-.14-.52-.19-.69A.82.82,0,0,1,323.23,239.74Z" style="fill:#263238"></path><path d="M337.91,327.63S319.25,309.71,313,298.47l3.85-2a10.41,10.41,0,0,1-8.33-2,30.91,30.91,0,0,1-6.08-6.37l5.19-1.32a19.69,19.69,0,0,1-12.24-7.95c6.3.5,12.2,3.44,17.18,7.32a82.07,82.07,0,0,1,10.94,10.72,40.11,40.11,0,0,1,4.4,6C331.26,308.58,337.32,320.53,337.91,327.63Z" style="fill:#455a64"></path><path d="M368.81,252.14s0,.07-.06.2-.13.34-.22.58c-.2.53-.49,1.28-.86,2.23s-.84,2.15-1.36,3.53-1.13,2.95-1.76,4.69c-1.29,3.48-2.76,7.65-4.33,12.3s-3.19,9.79-4.79,15.22-3,10.65-4.21,15.41-2.21,9.06-3,12.68c-.42,1.81-.75,3.46-1.06,4.9s-.56,2.69-.77,3.7-.36,1.79-.48,2.35c-.05.25-.1.45-.13.6a.64.64,0,0,1-.06.21,1.13,1.13,0,0,1,0-.21c0-.16.06-.36.1-.62l.42-2.35c.19-1,.42-2.27.72-3.72s.61-3.09,1-4.9c.76-3.64,1.75-7.95,2.94-12.71s2.59-10,4.18-15.43,3.25-10.57,4.82-15.23,3.08-8.81,4.4-12.28c.65-1.74,1.27-3.3,1.81-4.67s1-2.55,1.41-3.51l.91-2.21.25-.57Z" style="fill:#263238"></path><polygon points="283.71 358.32 309.03 328.15 346.75 300.01 420.12 291.41 445.3 312.22 445.3 358.32 283.71 358.32" style="fill:#e0e0e0"></polygon><polygon points="346.75 300.01 413.88 329.15 443.29 310.56 420.12 291.41 346.75 300.01" style="fill:#f5f5f5"></polygon><path d="M410.44,325.16c.38,1.14,5.7,21.44,5.7,21.44l.94-21.44Z" style="fill:#f5f5f5"></path><path d="M418.3,354.66a2.24,2.24,0,0,1-.19-.5c-.12-.38-.28-.87-.47-1.48-.41-1.34-1-3.21-1.69-5.56-1.43-4.81-3.42-11.54-5.74-19.39l.13.16L396.64,322l-27.89-12.19L360.32,306,358,305a6.11,6.11,0,0,1-.78-.39,4.43,4.43,0,0,1,.82.3l2.32.95,8.49,3.6,28,12.05,13.69,6,.1.05,0,.1L416.24,347c.65,2.36,1.18,4.25,1.55,5.6.17.62.3,1.11.4,1.49A3.92,3.92,0,0,1,418.3,354.66Z" style="fill:#263238"></path><polygon points="62.33 358.32 62.41 315.81 91.16 297.07 122.07 300.14 142.03 324.7 149.06 341.48 169.45 347.24 188.31 358.9 62.33 358.32" style="fill:#e0e0e0"></polygon><polygon points="91.16 297.07 111.53 325.04 142.03 324.7 122.07 300.14 91.16 297.07" style="fill:#ebebeb"></polygon><polygon points="149.06 341.48 128.05 342.88 169.45 347.24 149.06 341.48" style="fill:#ebebeb"></polygon><path d="M111.53,325s4.79,15.11,5.06,14.69,7.07-16.45,7.07-16.45Z" style="fill:#ebebeb"></path><path d="M188.31,358.9a1.77,1.77,0,0,1-.34-.18l-1-.58-3.76-2.26-13.87-8.49,0,0L149,341.7l-.11,0,0-.1-7.05-16.77,0,.06L130.64,311.1c-3-3.69-5.93-7.3-8.76-10.8l.17.1-30.91-3.11.13,0L70.33,310.8l-5.84,3.73-1.54,1a5.88,5.88,0,0,1-.54.31l.5-.36,1.51-1c1.36-.89,3.3-2.19,5.78-3.83L91,296.89l.06,0h.08l30.92,3h.11l.06.08,8.78,10.79,11.17,13.77,0,0v0c2.49,5.95,4.85,11.62,7,16.79l-.15-.13,20.38,5.81h0l13.8,8.62,3.7,2.35,1,.61A2,2,0,0,1,188.31,358.9Z" style="fill:#263238"></path><path d="M124.85,340.48c0-.14,5.4,0,12.05.3s12,.67,12,.82-5.4,0-12.05-.3S124.84,340.63,124.85,340.48Z" style="fill:#263238"></path><path d="M238.52,336.59s-.12-.16-.34-.48-.53-.84-.92-1.44c-.82-1.3-2-3.14-3.43-5.46l-12-19.3.15.1-22.71-4.86-3.66-.79.24-.08-14.53,15-.06.06h-.07l-9.55,1.47.13-.08-9.18,11.71-2.53,3.19-.68.82a1.54,1.54,0,0,1-.24.27,1.91,1.91,0,0,1,.19-.3l.63-.86,2.45-3.26,9-11.82.05-.06h.08l9.53-1.53L181,319l14.5-15.06.1-.1.14,0,3.66.79,22.7,4.91.1,0,0,.08,11.81,19.4,3.32,5.53.86,1.48A2.94,2.94,0,0,1,238.52,336.59Z" style="fill:#263238"></path><path d="M84.41,253.7q2.45,17.39,4.88,34.76l1.27,0C89.75,276.69,88.89,264.65,84.41,253.7Z" style="fill:#455a64"></path><path d="M98,252.07c-3.41,3.74-4.78,8.88-5.65,13.86a107.77,107.77,0,0,0-1,22.57l1.79,0A97.91,97.91,0,0,1,98,252.07Z" style="fill:#455a64"></path><path d="M85.31,274.26a14.55,14.55,0,0,0-1.82-4.94,12.94,12.94,0,0,0-5.67-4.21,38.87,38.87,0,0,1-6.43-3.1c2.19,3.6,7.17,4.55,9.71,7.92a15.57,15.57,0,0,1,2.28,5.81c1.08,4.44,1.74,8.29,2.82,12.73h1.44A113.74,113.74,0,0,0,85.31,274.26Z" style="fill:#455a64"></path><path d="M94.44,288.5s1.22-13.81,2.12-16.34S106,262.62,106,263s-6.43,8-7.34,9.56-2.47,16-2.47,16Z" style="fill:#455a64"></path><path d="M308.29,304.15c-2.56-.53-5.39,0-7.7-1.25s-3.85-4.16-6.49-4.22c-2.13-.06-3.73,1.85-5.08,3.51s-3.25,3.41-5.33,2.9c-1.49-.36-2.6-1.82-4.13-1.89-2-.09-3.42,2.3-5.45,2.54a4.32,4.32,0,0,1-3.39-1.52,36.86,36.86,0,0,0-2.63-2.81,6.53,6.53,0,0,0-8.16.15c-1.55,1.36-2.79,3.63-4.85,3.5a17.11,17.11,0,0,1-2.21-.58,5,5,0,0,0-3.78,1.26c-1.07.85-2,1.9-3.06,2.72-3.53,2.61-9.23,2.75-13.45,5.24h83.06A9.57,9.57,0,0,0,308.29,304.15Z" style="fill:#fafafa"></path><path d="M308.29,304.15s.29.05.84.19a9,9,0,0,1,2.28,1.08,10.1,10.1,0,0,1,2.87,2.92,9.38,9.38,0,0,1,1.49,5.37v.12h-.12l-78.47.13h-5.56l.83-.48c2.7-1.56,5.69-2.18,8.48-3a19.07,19.07,0,0,0,4-1.6,16.66,16.66,0,0,0,3.27-2.69,6.62,6.62,0,0,1,3.84-2,5.11,5.11,0,0,1,2.12.42,2.72,2.72,0,0,0,1.86.08,8.86,8.86,0,0,0,3-2.53A6.68,6.68,0,0,1,262.4,300a6.7,6.7,0,0,1,7,2.39,12,12,0,0,0,2.52,2.52,3.5,3.5,0,0,0,1.55.58,2.79,2.79,0,0,0,1.58-.3c1-.48,1.83-1.3,2.86-1.83a3.23,3.23,0,0,1,1.7-.39,3.92,3.92,0,0,1,1.6.56A8.57,8.57,0,0,0,284,305a3.8,3.8,0,0,0,2.7-.74c1.61-1.07,2.57-2.73,3.86-4a6.16,6.16,0,0,1,2.17-1.46,3.69,3.69,0,0,1,2.45-.07,10.32,10.32,0,0,1,3.51,2.57,8,8,0,0,0,3,2,10.79,10.79,0,0,0,2.83.49l2.11.15a9.14,9.14,0,0,1,1.73.28l-.44,0c-.29,0-.72-.09-1.3-.13l-2.11-.1a11.21,11.21,0,0,1-2.88-.45,8.14,8.14,0,0,1-3.07-2,10.38,10.38,0,0,0-3.43-2.47,3.41,3.41,0,0,0-2.27.08,6.14,6.14,0,0,0-2,1.41c-1.25,1.2-2.2,2.9-3.89,4a4.12,4.12,0,0,1-3,.81,8.57,8.57,0,0,1-2.85-1.42,3.55,3.55,0,0,0-1.44-.5,2.73,2.73,0,0,0-1.48.36c-1,.49-1.78,1.31-2.86,1.85a3.4,3.4,0,0,1-1.81.34,4.07,4.07,0,0,1-1.75-.64,12.87,12.87,0,0,1-2.62-2.59,6.25,6.25,0,0,0-6.58-2.23,6.14,6.14,0,0,0-3.18,2c-.91.93-1.74,2.13-3.15,2.66a3.26,3.26,0,0,1-2.18-.07,4.63,4.63,0,0,0-1.93-.39,6.16,6.16,0,0,0-3.53,1.85,16.83,16.83,0,0,1-3.36,2.76,19,19,0,0,1-4.11,1.65c-2.82.85-5.77,1.48-8.36,3l-.13-.49h4.59l78.47.13-.14.13a9.17,9.17,0,0,0-1.4-5.25,10,10,0,0,0-2.77-2.92A10.39,10.39,0,0,0,308.29,304.15Z" style="fill:#e0e0e0"></path><path d="M238.88,313.7a46.82,46.82,0,0,1-7,.26,46.91,46.91,0,0,1-7.05-.26,48.55,48.55,0,0,1,7.05-.26A48.47,48.47,0,0,1,238.88,313.7Z" style="fill:#e0e0e0"></path><path d="M315.41,317c0,.14-12.59.26-28.13.26s-28.14-.12-28.14-.26,12.6-.26,28.14-.26S315.41,316.86,315.41,317Z" style="fill:#263238"></path><path d="M298.06,320.48c0,.15-6.65.3-14.85.34s-14.85,0-14.85-.18,6.65-.3,14.85-.34S298.06,320.34,298.06,320.48Z" style="fill:#e0e0e0"></path><path d="M280.16,324.05c0,.15-.79.26-1.76.26s-1.77-.11-1.77-.26.79-.26,1.77-.26S280.16,323.91,280.16,324.05Z" style="fill:#e0e0e0"></path><path d="M280.57,349.54c0,.15-10.66.27-23.8.27s-23.8-.12-23.8-.27,10.65-.26,23.8-.26S280.57,349.4,280.57,349.54Z" style="fill:#e0e0e0"></path><path d="M273.92,346.83c0,.15-5.1.26-11.39.26s-11.39-.11-11.39-.26,5.1-.26,11.39-.26S273.92,346.69,273.92,346.83Z" style="fill:#e0e0e0"></path><path d="M262.89,280.5c0,.14-16.94.3-37.82.36s-37.83,0-37.84-.16,16.94-.31,37.83-.36S262.89,280.35,262.89,280.5Z" style="fill:#263238"></path><path d="M234.71,299.26a61.3,61.3,0,0,1-3.13-7.46,64.54,64.54,0,0,1-2.64-7.64,61.3,61.3,0,0,1,3.13,7.46A64.54,64.54,0,0,1,234.71,299.26Z" style="fill:#e0e0e0"></path><path d="M238.46,295.36a9,9,0,0,1-1.38-2.7,9.17,9.17,0,0,1-.9-2.9,9,9,0,0,1,1.38,2.7A9.17,9.17,0,0,1,238.46,295.36Z" style="fill:#e0e0e0"></path><path d="M246.12,305.4a13.2,13.2,0,0,1-1.19-2.47c-.66-1.56-1.51-3.74-2.35-6.18s-1.52-4.68-2-6.32a13.07,13.07,0,0,1-.59-2.68,15.76,15.76,0,0,1,.94,2.58c.6,1.76,1.31,3.89,2.1,6.25s1.58,4.46,2.21,6.22A14.87,14.87,0,0,1,246.12,305.4Z" style="fill:#e0e0e0"></path><path d="M260,270.74a17.65,17.65,0,0,1,9.09,3.54,11.81,11.81,0,0,1-4.09,2.94" style="fill:#CC311A"></path><path d="M252.81,278.51a10.4,10.4,0,0,0,1.66,5,1.7,1.7,0,0,0,.76.74,1.33,1.33,0,0,0,1.21-.22,4.09,4.09,0,0,0,.84-1" style="fill:#CC311A"></path><path d="M264.8,283.07l-1.75.92a6.44,6.44,0,0,0-.37,7.39,6.39,6.39,0,0,0,2.85-6.09,6.06,6.06,0,0,0,7-1.58A8.45,8.45,0,0,0,264.8,283.07Z" style="fill:#CC311A"></path><path d="M264.8,283.07l-1.75.92a6.44,6.44,0,0,0-.37,7.39,6.39,6.39,0,0,0,2.85-6.09,6.06,6.06,0,0,0,7-1.58A8.45,8.45,0,0,0,264.8,283.07Z" style="opacity:0.2"></path><path d="M253.53,269.74s7.84-.83,11.52,4.26-.64,10.05-.64,10.05-5.79,1.43-9.79-2.51S253.53,269.74,253.53,269.74Z" style="fill:#CC311A"></path><path d="M257.33,271.66a.65.65,0,1,0-1,.77.65.65,0,1,0,.62-1.1" style="fill:#fff"></path><path d="M264.9,281.55a7.85,7.85,0,0,1,.27-1.06,7.05,7.05,0,0,0,.07-2.56,6.85,6.85,0,0,0-.88-2.41,7.53,7.53,0,0,1-.59-.92,2.72,2.72,0,0,1,.77.79,5.93,5.93,0,0,1,.84,5.16A2.57,2.57,0,0,1,264.9,281.55Z" style="fill:#fff"></path><path d="M262.13,273.15c-.07.05-.19,0-.26-.1s-.07-.24,0-.28.19,0,.26.1S262.2,273.1,262.13,273.15Z" style="fill:#fff"></path><polygon points="170.14 267.79 163.54 264.01 161.36 252.65 159.52 253.16 161.11 263.88 154.79 259.61 153.41 261.2 161.77 266.52 170.14 270.44 170.14 267.79" style="fill:#455a64"></polygon><rect x="169.22" y="251.23" width="4.83" height="62.66" style="fill:#455a64"></rect><path d="M170.32,131.53c0,.66-13,41.54-13,41.54l6.49-6.59-9.35,28.57,6.16-8.57-7.25,35.83,3.51-3.74-6.15,25.28,5.27-6.6-5.27,18.9,41.76-3.07-9.89-35.61,6,6.59-7.73-25.93,3.95,2.2-9-33.41,4.18,2.86Z" style="fill:#455a64"></path><path d="M171.72,204.5a3.89,3.89,0,0,1-.21.61c-.16.42-.38,1-.65,1.66l-2.34,5.72-.1.25-.13-.24a28.38,28.38,0,0,1-1.7-3.79q-.28-.77-.51-1.5h.26c-1.16,2.94-2.28,5.5-3.13,7.31-.43.91-.78,1.64-1,2.13l-.3.57-.11.19a5.13,5.13,0,0,1,.32-.8l.95-2.16c.81-1.83,1.9-4.4,3-7.34l.15-.36.11.37c.15.48.32,1,.5,1.49a30.54,30.54,0,0,0,1.68,3.76h-.24c1-2.28,1.82-4.25,2.43-5.69.3-.66.54-1.21.72-1.63S171.71,204.5,171.72,204.5Z" style="fill:#263238"></path><path d="M176.17,189.24a1.69,1.69,0,0,1-.24-.44l-.6-1.25c-.51-1.06-1.27-2.54-2.26-4.2l.24,0c-.21.8-.43,1.67-.66,2.57-.15.56-.3,1.1-.44,1.63l-.09.37-.16-.35c-.89-2-1.66-3.72-2.2-5-.25-.59-.46-1.08-.62-1.48a2,2,0,0,1-.2-.55,4.73,4.73,0,0,1,.28.51l.7,1.45c.58,1.23,1.39,3,2.29,4.94l-.25,0c.13-.52.28-1.07.42-1.63.24-.9.47-1.76.68-2.57l.08-.3.16.27a45,45,0,0,1,2.18,4.26c.24.55.42,1,.53,1.29A2.37,2.37,0,0,1,176.17,189.24Z" style="fill:#263238"></path><path d="M170.25,157.92a10.43,10.43,0,0,1-.73,1.46c-.49.89-1.19,2.12-2,3.53l-.18.32-.07-.37c-.07-.4-.15-.82-.22-1.25-.13-.75-.26-1.46-.37-2.13l.23.05c-.74,1.18-1.39,2.19-1.86,2.9a8.51,8.51,0,0,1-.78,1.1,7.93,7.93,0,0,1,.64-1.19c.43-.73,1.05-1.76,1.78-3l.18-.29.06.34c.12.66.25,1.37.39,2.12.07.43.15.85.22,1.26l-.25,0c.81-1.39,1.54-2.61,2.06-3.48A11.63,11.63,0,0,1,170.25,157.92Z" style="fill:#263238"></path><path d="M416.62,249.86c-2.54,0-4.34,2.55-5.3,4.91a8.43,8.43,0,0,0,.74,7.34,9.54,9.54,0,0,0,8.5,4.56,9.1,9.1,0,0,0,7.81-5.57,8.65,8.65,0,0,0-2.09-9.31c-3.15-2.9-6.42-3.4-10.56-1.82" style="fill:#CC311A"></path><g style="opacity:0.7000000000000001"><path d="M416.62,249.86c-2.54,0-4.34,2.55-5.3,4.91a8.43,8.43,0,0,0,.74,7.34,9.54,9.54,0,0,0,8.5,4.56,9.1,9.1,0,0,0,7.81-5.57,8.65,8.65,0,0,0-2.09-9.31c-3.15-2.9-6.42-3.4-10.56-1.82" style="fill:#fff"></path></g><path d="M418.64,256.18a28.89,28.89,0,0,0-3.26-11.35,8.46,8.46,0,0,0-2.53-3.17,3.19,3.19,0,0,0-5.17,3.19,9.12,9.12,0,0,0,1.5,3.53c2.24,3.54,5.22,5.77,9.46,7.8" style="fill:#fff"></path><path d="M418.64,256.18a1.39,1.39,0,0,1-.39-.14c-.25-.1-.61-.26-1.07-.49a24.27,24.27,0,0,1-3.7-2.24,17.67,17.67,0,0,1-4.4-4.68,10,10,0,0,1-1.6-3.5,3.87,3.87,0,0,1,1.34-3.87,3.23,3.23,0,0,1,2.12-.53,4.47,4.47,0,0,1,2,.69,8,8,0,0,1,2.47,3,27.81,27.81,0,0,1,2.39,6,26.28,26.28,0,0,1,.8,4.25c.05.51.08.91.08,1.18s0,.41,0,.41a13,13,0,0,1-.25-1.56,33.5,33.5,0,0,0-.95-4.18,28.83,28.83,0,0,0-2.45-5.85,7.56,7.56,0,0,0-2.33-2.77,3.31,3.31,0,0,0-3.56-.17,3.44,3.44,0,0,0-1.15,3.4,9.63,9.63,0,0,0,1.5,3.34,18.11,18.11,0,0,0,4.24,4.65,29.26,29.26,0,0,0,3.58,2.35A9.92,9.92,0,0,1,418.64,256.18Z" style="fill:#263238"></path><path d="M421.53,256.18a28.84,28.84,0,0,0,10.88-4.57,8.38,8.38,0,0,0,2.86-2.88,3.19,3.19,0,0,0-3.78-4.76,9,9,0,0,0-3.33,1.91c-3.25,2.63-5.11,5.85-6.63,10.3" style="fill:#fff"></path><path d="M421.53,256.18s0-.15.09-.4.19-.64.36-1.12a23.74,23.74,0,0,1,1.79-3.94,18,18,0,0,1,4.14-4.92,10,10,0,0,1,3.28-2,3.88,3.88,0,0,1,4,.87,3.22,3.22,0,0,1,.77,2,4.34,4.34,0,0,1-.46,2.05,7.89,7.89,0,0,1-2.64,2.79,27.85,27.85,0,0,1-5.65,3.07,26.85,26.85,0,0,1-4.13,1.3c-.5.1-.89.18-1.15.21a1.81,1.81,0,0,1-.41,0,11.82,11.82,0,0,1,1.52-.44,32.21,32.21,0,0,0,4-1.42,29.45,29.45,0,0,0,5.52-3.12,7.67,7.67,0,0,0,2.48-2.64,3.3,3.3,0,0,0-.25-3.56,3.44,3.44,0,0,0-3.51-.74,9.76,9.76,0,0,0-3.14,1.88,18.38,18.38,0,0,0-4.13,4.75,29.7,29.7,0,0,0-1.91,3.84C421.76,255.66,421.56,256.19,421.53,256.18Z" style="fill:#263238"></path><path d="M418.64,255.45c-1,0-1.64,1-2,1.86a3.17,3.17,0,0,0,.28,2.76,3.6,3.6,0,0,0,3.2,1.72,3.45,3.45,0,0,0,2.95-2.1,3.27,3.27,0,0,0-.79-3.51,3.49,3.49,0,0,0-4-.69" style="fill:#CC311A"></path><path d="M415.58,264.47a4.25,4.25,0,0,1-1.31-.9,8.79,8.79,0,0,1-2.17-3.18,6.37,6.37,0,0,1-.39-3.84,2.6,2.6,0,0,1,.67-1.44c.08,0-.21.57-.34,1.5a7.07,7.07,0,0,0,.51,3.6C413.61,263,415.71,264.33,415.58,264.47Z" style="fill:#fff"></path><path d="M418.46,265.43c0,.13-.35.31-.82.21s-.74-.4-.67-.51.4,0,.77,0S418.44,265.3,418.46,265.43Z" style="fill:#fff"></path><path d="M427.89,256.79c.06,0,.2.41.23,1.12a6.33,6.33,0,0,1-.54,2.71,6.49,6.49,0,0,1-1.6,2.24c-.54.46-.94.64-1,.59a12.89,12.89,0,0,0,2.13-3A13,13,0,0,0,427.89,256.79Z" style="fill:#fff"></path><path d="M422.19,250.87c-.12.06-.3-.05-.51-.13s-.42-.14-.46-.27.26-.34.64-.18S422.32,250.82,422.19,250.87Z" style="fill:#fff"></path><path d="M418.19,260.49c0,.06-.31,0-.64-.33a2.51,2.51,0,0,1-.77-1.56,2.54,2.54,0,0,1,.44-1.69c.26-.37.52-.5.56-.45a4.65,4.65,0,0,0-.52,2.09C417.38,259.74,418.28,260.39,418.19,260.49Z" style="fill:#fff"></path><path d="M419.69,261.15c0,.13-.18.23-.36.21s-.33-.14-.32-.27.17-.23.36-.21S419.7,261,419.69,261.15Z" style="fill:#fff"></path><g style="opacity:0.1"><path d="M269.59,337.08c-.38.17-.25.79.11,1a2.72,2.72,0,0,0,1.21.16c.41,0,.88.22.95.62.13.73-1.1,1-1.16,1.79s.74.93,1.36,1,1.4.26,1.5.88a5.83,5.83,0,0,1-.06.72c0,.72.83,1.17,1.55,1.17s1.4-.29,2.12-.34a1.56,1.56,0,0,1,1.71,1,3.67,3.67,0,0,0,.11.74c.19.47.8.57,1.3.58a19.76,19.76,0,0,0,6-.79,1.38,1.38,0,0,0,1-.67,1,1,0,0,0-.62-1.15,2.72,2.72,0,0,0-1.42-.08l3.16-1.05a6.87,6.87,0,0,0,2.79-1.43,3.39,3.39,0,0,0-2.92-5.76"></path></g><path d="M287.86,333.33a28.32,28.32,0,0,0-17.3.43,4.36,4.36,0,0,0-1.93,1.12,1.65,1.65,0,0,0-.15,2.07,2.41,2.41,0,0,0,1.64.61,28,28,0,0,0,4.76,0,7.3,7.3,0,0,0-2.08,1,2.41,2.41,0,0,0-1.05,1.93,2.34,2.34,0,0,0,1.19,1.84,5.41,5.41,0,0,0,2.17.64,24.47,24.47,0,0,0,12.77-1.69,9.75,9.75,0,0,0,3.57-2.92C292.12,337.21,291.52,334.66,287.86,333.33Z" style="fill:#455a64"></path><g style="opacity:0.1"><path d="M284,348.15c0,.29-1,.58-2.33.62s-2.36-.15-2.38-.44,1-.58,2.34-.63S284,347.85,284,348.15Z"></path></g><path d="M83.83,307.85a3.17,3.17,0,0,0-4.28,3.68c-2-.91-4.61.3-5.73,2.26a8.51,8.51,0,0,0-.38,6.56,3.57,3.57,0,0,0-2.11,6.37,3.56,3.56,0,0,0-1.43,6.9A4.71,4.71,0,0,0,73.78,342a5,5,0,0,0,7.44,4.21,7.63,7.63,0,0,0,11.64.92,8.83,8.83,0,0,0,5,1.71c1.77-.09,3.58-1.55,3.42-3.31,1.6.54,3.37,1,4.94.38s2.57-2.81,1.45-4.07a5.09,5.09,0,0,0,5.73-5,4,4,0,0,0,5.1-5.42c1.94-.74,2.56-3.36,1.78-5.28s-2.54-3.24-4.29-4.35a5.58,5.58,0,0,0-5.1-8.73,4.17,4.17,0,0,0-6.93-4.07,4.66,4.66,0,0,0-5.82-4.37,7.57,7.57,0,0,1-2.49.77c-1.2,0-2.11-1.07-3.23-1.47a3.27,3.27,0,0,0-4.15,2.56,1.51,1.51,0,0,0-1.78-1.32,2.42,2.42,0,0,0-1.74,1.67,7,7,0,0,0-.25,2.5" style="fill:#CC311A"></path><path d="M83.24,332.3c.1,0,1,7.33,2,16.38s1.72,16.41,1.62,16.42-1-7.32-2-16.38S83.15,332.31,83.24,332.3Z" style="fill:#263238"></path><path d="M84.55,343a29.12,29.12,0,0,1-2.85-3.42,27.73,27.73,0,0,1-2.57-3.63A29.12,29.12,0,0,1,82,339.34,27,27,0,0,1,84.55,343Z" style="fill:#263238"></path><path d="M89.82,322.33c.1,0,.52,9.56.94,21.35s.68,21.36.59,21.36-.52-9.55-.94-21.35S89.73,322.34,89.82,322.33Z" style="fill:#263238"></path><path d="M95.06,322.78a1.44,1.44,0,0,1,0,.43c0,.31,0,.72,0,1.22,0,1.11-.07,2.64-.13,4.52-.1,3.81-.21,9.07-.24,14.89s0,11.08.13,14.89c0,1.87.07,3.4.1,4.51,0,.5,0,.91,0,1.23a1.44,1.44,0,0,1,0,.43,2.14,2.14,0,0,1-.05-.43c0-.32,0-.72-.08-1.22-.06-1.07-.13-2.61-.2-4.52-.14-3.81-.25-9.07-.23-14.9s.17-11.08.34-14.89c.08-1.91.17-3.45.24-4.51L95,323.2A2,2,0,0,1,95.06,322.78Z" style="fill:#263238"></path><path d="M97.27,336.82a6.88,6.88,0,0,1-1.07,2.6,7,7,0,0,1-1.77,2.18c-.07-.07.69-1.05,1.47-2.36S97.18,336.78,97.27,336.82Z" style="fill:#263238"></path><path d="M104.74,328.91a1.89,1.89,0,0,1,0,.36l-.22,1.05-.84,3.81c-.71,3.23-1.65,7.69-2.58,12.63s-1.68,9.45-2.2,12.71c-.25,1.59-.45,2.9-.61,3.86-.07.43-.13.77-.17,1.05s-.07.36-.09.36a2.06,2.06,0,0,1,0-.37l.11-1.06c.1-.91.27-2.24.5-3.88.46-3.27,1.16-7.78,2.1-12.73s1.91-9.41,2.68-12.62c.38-1.61.71-2.9,1-3.8.11-.41.2-.75.28-1A1.38,1.38,0,0,1,104.74,328.91Z" style="fill:#263238"></path><path d="M107.73,336.38a21.6,21.6,0,0,1-2.81,2.78,23,23,0,0,1-3,2.53,22.85,22.85,0,0,1,2.81-2.79A23.34,23.34,0,0,1,107.73,336.38Z" style="fill:#263238"></path><path d="M103.31,335a10.41,10.41,0,0,1-1.36-2.22,9.57,9.57,0,0,1-1.06-2.38,10.41,10.41,0,0,1,1.36,2.22A9.74,9.74,0,0,1,103.31,335Z" style="fill:#263238"></path><path d="M118.45,315.77a4.61,4.61,0,0,1,3.41-4.91,4.51,4.51,0,0,1-3.41,4.91" style="fill:#CC311A"></path><path d="M119.53,318c1,1.63,4.23,2,6.14,1a4.52,4.52,0,0,0-6.14-1" style="fill:#CC311A"></path><polygon points="158.84 337.17 171.64 320.64 181.18 319.14 195.7 304.1 222.06 309.78 238.88 337.17 158.84 337.17" style="fill:#e0e0e0"></polygon><polygon points="171.64 320.64 187.38 321.39 181.18 319.14 171.64 320.64" style="fill:#ebebeb"></polygon><polygon points="195.7 304.1 209.64 313.7 222.06 309.78 195.7 304.1" style="fill:#ebebeb"></polygon><polygon points="209.64 313.7 211.66 336.78 238.88 337.17 222.06 309.78 209.64 313.7" style="fill:#f5f5f5"></polygon><polygon points="171.64 320.64 189.81 332.38 187.38 321.39 171.64 320.64" style="fill:#f5f5f5"></polygon><path d="M247.13,337.22c0,.14-20.72.26-46.27.26s-46.28-.12-46.28-.26,20.71-.26,46.28-.26S247.13,337.07,247.13,337.22Z" style="fill:#263238"></path><path d="M445.3,312.22l-.46-.34-1.33-1.06-5.05-4.11L420,291.56l.14,0-63.38,7.5-10,1.17.12,0-37.75,28.1,0,0L290.68,350.2l-5.14,6-1.35,1.57c-.31.35-.48.52-.48.52l.43-.56,1.31-1.61,5.05-6.1,18.37-22v0l0,0,37.69-28.17.06,0h.07l10-1.17,63.4-7.37h.08l.06.05,18.36,15.28,5,4.19,1.29,1.1C445.16,312.08,445.3,312.22,445.3,312.22Z" style="fill:#263238"></path></g><g id="freepik--Floor--inject-2"><path d="M481.46,394.62c0,.14-103.64.26-231.45.26s-231.47-.12-231.47-.26,103.61-.26,231.47-.26S481.46,394.47,481.46,394.62Z" style="fill:#263238"></path><path d="M405.78,475c0,.14-69.75.26-155.77.26S94.22,475.1,94.22,475,164,474.7,250,474.7,405.78,474.82,405.78,475Z" style="fill:#263238"></path></g><g id="freepik--Birds--inject-2"><path d="M467.14,45.84c0,.06-1-.35-2.94-.77a23.29,23.29,0,0,0-8.19-.32A22.17,22.17,0,0,0,445,49.51a23,23,0,0,0-7.79,12.38s0,.09,0,.14l-.22.88-.34-.84a24.65,24.65,0,0,0-9.34-11.27A23.84,23.84,0,0,0,415.84,47a25.23,25.23,0,0,0-8.15.75c-1.88.49-2.87.93-2.89.87a5,5,0,0,1,.71-.34,16.44,16.44,0,0,1,2.12-.75,24.28,24.28,0,0,1,19.9,2.81,25,25,0,0,1,9.59,11.51l-.57,0,0-.15a23.28,23.28,0,0,1,8-12.66A22.18,22.18,0,0,1,456,44.33a22.66,22.66,0,0,1,8.31.51,17.88,17.88,0,0,1,2.16.68A6.12,6.12,0,0,1,467.14,45.84Z" style="fill:#263238"></path><path d="M309.82,80.75a19.13,19.13,0,0,1-1.32,1.52,34.4,34.4,0,0,0-3.23,4.39,32,32,0,0,0-4.8,17v.22l-.6,0A28.62,28.62,0,0,0,292,88.33a39.93,39.93,0,0,0-5.73-4.65,1.71,1.71,0,0,1,.47.22,13.42,13.42,0,0,1,1.28.74A25.11,25.11,0,0,1,292.32,88a27.3,27.3,0,0,1,4.92,6.45,27.77,27.77,0,0,1,3.22,9.4l-.59.05v-.22a31.46,31.46,0,0,1,5-17.28,29,29,0,0,1,3.42-4.32c.44-.47.83-.8,1.08-1A1.7,1.7,0,0,1,309.82,80.75Z" style="fill:#263238"></path><path d="M221.63,29.42s-.58-.16-1.63-.38a13.13,13.13,0,0,0-4.48-.13,12.07,12.07,0,0,0-6,2.62,12.51,12.51,0,0,0-4.23,6.74l0,.08-.23.88-.34-.84a13.47,13.47,0,0,0-5.08-6.14,13,13,0,0,0-6.2-2.1,14,14,0,0,0-4.46.37c-1,.25-1.59.48-1.61.43s.12-.09.38-.21a7.85,7.85,0,0,1,1.17-.45,13.32,13.32,0,0,1,11,1.5,13.77,13.77,0,0,1,5.33,6.38l-.56,0,0-.08a12.78,12.78,0,0,1,4.47-7,12.39,12.39,0,0,1,10.89-2.29,7.85,7.85,0,0,1,1.18.4C221.5,29.33,221.64,29.4,221.63,29.42Z" style="fill:#263238"></path></g><g id="freepik--Character--inject-2"><path d="M243.12,298.25l.52-.13a9.8,9.8,0,0,1,8-4.78,12.7,12.7,0,0,1,8.91,3.31c1.69,1.5,3,3.36,4.72,4.85s4,2.6,6.17,2.14c.27.82-1.27,1.31-1.17,2.17a1,1,0,0,0,.87.76,10.94,10.94,0,0,0,1.81,0,1.47,1.47,0,0,1,1.45.88,1.77,1.77,0,0,1-.08.88,15.67,15.67,0,0,1-3.58,7,8.23,8.23,0,0,1-7.19,2.62c-2.08-.39-3.83-1.76-5.49-3.09l-9.43-7.55a21.59,21.59,0,0,1-4-3.85A7.15,7.15,0,0,1,243.12,298.25Z" style="fill:#263238"></path><path d="M245.09,298.78a10.42,10.42,0,0,0-4.4-2.18,6.16,6.16,0,0,0-4.72.9,13.73,13.73,0,0,0-2.89,3.56,5.72,5.72,0,0,1-3.56,2.71,1.36,1.36,0,0,0-.75.24c-.35.33-.1,1,.33,1.17a2.27,2.27,0,0,0,1.41,0,5,5,0,0,1-3,1.67,2.17,2.17,0,0,0,2.66,1.53,22.3,22.3,0,0,0-.87,5.42,7.51,7.51,0,0,0,1.76,5.08c1.38,1.49,3.61,2.32,4.21,4.25" style="fill:#263238"></path><path d="M258.33,363.51l-24.56-.32,2.74-20.91s-1.68-.36-1.79-9.45-.53-24.56-.53-24.56h0a31.64,31.64,0,0,1,31.77,4l1.35,1Z" style="fill:#ffbe9d"></path><path d="M264.46,324.49c.15-.06,6.25-1.85,6.05,4.37s-6.4,4.74-6.41,4.56S264.46,324.49,264.46,324.49Z" style="fill:#ffbe9d"></path><path d="M235.25,323.19c-.16-.06-5.7-1.56-5.5,4.66s6.4,4.74,6.4,4.56S235.25,323.19,235.25,323.19Z" style="fill:#ffbe9d"></path><path d="M266.47,323.8c-.92,5.21-.74,7.95-1.6,11.43-1.36,5.51-4.1,9.73-9.06,12.48s-11.67,2.7-15.94-1c-3-2.6-5.05-5.54-5.49-9.45S232.79,326,232.76,322c0-7.1.19-13.47.19-13.47l20.28-3.67,11.55,6.86Z" style="fill:#263238"></path><path d="M245.55,350.85a6.51,6.51,0,0,0,3.55.32,6.65,6.65,0,0,0,3.4-1.08c-.05-.16-1.55.31-3.46.51S245.57,350.69,245.55,350.85Z" style="fill:#263238"></path><path d="M265.49,332.66c.6-5.34,1-11.45,1.82-17.08.31-2.11,1.06-5.16.88-7.29s-.77-1.48-1.72-3.41c-1.18-2.42-5.68-4-8.32-4.56s-3-2.81-5-1a6.58,6.58,0,0,0-12,2.77,4.58,4.58,0,0,0-7.55,4.59,4.47,4.47,0,0,0-3,6.84c.94,1.45,2.64,2.24,3.67,3.62a5.19,5.19,0,0,1,.32,5.62" style="fill:#263238"></path><path d="M239.36,331.55a11.87,11.87,0,0,0,3.79,10,34,34,0,0,1-2.56-4.76C239.52,334,239.54,331.54,239.36,331.55Z" style="fill:#455a64"></path><path d="M236.63,327a9.63,9.63,0,0,0,1.71,9.39,26.81,26.81,0,0,1-1.54-4.57C236.3,329.21,236.81,327,236.63,327Z" style="fill:#455a64"></path><path d="M262.18,305.51a13.88,13.88,0,0,0-6.33-5.66,8.11,8.11,0,0,0-8.15,1" style="fill:#263238"></path><path d="M261.67,319.28a5.08,5.08,0,0,1,.2-1.84,23.88,23.88,0,0,0,.47-4.31,9.72,9.72,0,0,0-.93-4.12c-.49-1-1-1.49-.9-1.57s.69.32,1.34,1.31a8.4,8.4,0,0,1,1.21,4.37,15.39,15.39,0,0,1-.7,4.44A4.83,4.83,0,0,1,261.67,319.28Z" style="fill:#455a64"></path><path d="M257.47,321.33c-.18-.1.33-1.33.81-2.87s.8-2.84,1-2.82.21,1.42-.31,3S257.64,321.43,257.47,321.33Z" style="fill:#455a64"></path><path d="M238,319.74a5.39,5.39,0,0,1-1.39-2.23,10.95,10.95,0,0,1,2.38-11.9,5.19,5.19,0,0,1,2.14-1.52c.07.1-.75.67-1.77,1.86a12,12,0,0,0-2.65,5.39,12.11,12.11,0,0,0,.37,6C237.56,318.83,238.09,319.67,238,319.74Z" style="fill:#455a64"></path><path d="M260.17,296.6a9,9,0,0,1-2-.85,11.81,11.81,0,0,0-4.89-1.2,6,6,0,0,0-4.43,1.87,13.52,13.52,0,0,0-1.14,1.78,2.86,2.86,0,0,1,.74-2.1,5.52,5.52,0,0,1,1.89-1.58,6.76,6.76,0,0,1,2.93-.69,10.24,10.24,0,0,1,5.13,1.47A5.53,5.53,0,0,1,260.17,296.6Z" style="fill:#455a64"></path><path d="M232.43,302.36c-.08,0,.07-.72.72-1.65a6.7,6.7,0,0,1,7.9-2.29c1,.43,1.55.94,1.5,1s-.65-.24-1.66-.52a7.5,7.5,0,0,0-4,0,7.43,7.43,0,0,0-3.36,2.14C232.84,301.81,232.53,302.41,232.43,302.36Z" style="fill:#455a64"></path><path d="M239.12,325.22c0-.09,1-.36,2.64-1.09a21.08,21.08,0,0,0,6-4.06l1.18-1.14-.65,1.51a14.26,14.26,0,0,0-.88,2.95c-.1.51-.18,1.16,0,1.25s.7-.12,1.16-.45a18.85,18.85,0,0,0,4.18-3.69l1.08-1.29-.5,1.6c-.49,1.6-1,3.1-1.37,4.45l-.46-.28a27.75,27.75,0,0,0,4-5,4.78,4.78,0,0,1-.7,1.62,16.62,16.62,0,0,1-2.88,3.8l-.76.75.29-1c.38-1.36.81-2.87,1.26-4.48l.59.31a18.38,18.38,0,0,1-4.31,3.86,5.45,5.45,0,0,1-.8.47,1.15,1.15,0,0,1-1.17-.05,1.21,1.21,0,0,1-.41-1.07c0-.33.08-.59.13-.87a13.69,13.69,0,0,1,1-3.1l.53.38a19.31,19.31,0,0,1-6.31,3.95A8.61,8.61,0,0,1,239.12,325.22Z" style="fill:#455a64"></path><path d="M251,301.24a3.21,3.21,0,0,0-2-1.52,5.64,5.64,0,0,0-2.52-.06,9.08,9.08,0,0,0-5.29,3.06c-.31.37-.58.93-.25,1.28a1,1,0,0,0,.69.23,38.55,38.55,0,0,0,9.17-.32" style="fill:#263238"></path><path d="M199.21,417.66S180.57,407,174.37,407.34c-5.65.31-11.65,2-14.28,6.76s-2,11.88,1,16.19S194.62,459,195,460s12.05,14.83,35.75,14.94c23.54.11,36.7.28,38.72-2.76s3.33-35.81,3.33-35.81Z" style="fill:#455a64"></path><path d="M309,395.87c-4-3.67-10.21-3.44-15.68-2-6,1.59-20.39,17.53-20.39,17.53l-6.2,62.28c12.25-4,19.13-20.34,21.88-24.67.58-.91,22.92-32.41,24.46-37.45S312.91,399.55,309,395.87Z" style="fill:#455a64"></path><path d="M196.88,392.48s.15-20.29,4.27-27,7-8.39,13.13-9.15,21.06-1.53,21.06-1.53l26.7,1.83s22.29-.33,22.29,5.49c0,1.07-8.23,27.55-8.23,77.22,0,.49,4.11,1.81,1.64,7.42-3.47,7.86-15.19,23.51-35.88,23.51-17,0-35.67-8.18-37.2-20.09s4.13-46.54,4.13-46.54V392Z" style="fill:#CC311A"></path><path d="M282,359.3a15.16,15.16,0,0,1,9.81,10.7c2,8.43,6.28,26.8,6.28,26.8l-22,1.84s-1.22-13.92-.92-19.67S280.3,360.39,282,359.3Z" style="fill:#CC311A"></path><path d="M215.51,414a1.36,1.36,0,0,1-.16-.46c-.1-.36-.22-.8-.36-1.33-.3-1.17-.72-2.85-1.21-4.94-1-4.18-2.27-10-3.55-16.38s-2.29-12.27-2.87-16.52c-.29-2.13-.48-3.86-.58-5.06,0-.54-.07-1-.1-1.38a1.63,1.63,0,0,1,0-.48,2.32,2.32,0,0,1,.1.47c.05.38.11.83.19,1.37.16,1.19.41,2.91.74,5,.67,4.23,1.75,10.06,3,16.48s2.51,12.21,3.4,16.4c.43,2,.78,3.72,1,5,.11.54.2,1,.27,1.36A2.72,2.72,0,0,1,215.51,414Z" style="fill:#263238"></path><path d="M281.38,373.6a1.59,1.59,0,0,1,0,.5c-.05.38-.11.85-.19,1.41-.18,1.31-.42,3.06-.72,5.19-.59,4.38-1.28,10.45-1.84,17.17s-1,12.82-1.3,17.23c-.16,2.15-.3,3.91-.4,5.23-.06.56-.1,1-.14,1.41a2.89,2.89,0,0,1-.08.5,1.52,1.52,0,0,1,0-.5c0-.39,0-.86,0-1.43.06-1.31.14-3.08.24-5.23.23-4.42.57-10.52,1.14-17.26s1.32-12.8,2-17.17c.35-2.19.65-4,.89-5.17l.29-1.4A2.44,2.44,0,0,1,281.38,373.6Z" style="fill:#263238"></path><path d="M239.92,452.65a7.4,7.4,0,0,1-1.51,0,13.87,13.87,0,0,1-1.76-.13,19,19,0,0,1-2.31-.34,22.87,22.87,0,0,1-2.77-.66,31.42,31.42,0,0,1-3.08-1.06,32.64,32.64,0,0,1-12.12-8.56c-.74-.89-1.46-1.71-2-2.56a22.76,22.76,0,0,1-1.55-2.38,21.24,21.24,0,0,1-1.09-2.07,11.81,11.81,0,0,1-.7-1.62,8.77,8.77,0,0,1-.49-1.42c.11-.05.8,2,2.6,4.92a24,24,0,0,0,1.58,2.32,30.7,30.7,0,0,0,2,2.49,34,34,0,0,0,11.94,8.44c1.06.4,2.05.82,3,1.09a24.89,24.89,0,0,0,2.71.71C237.77,452.57,239.93,452.53,239.92,452.65Z" style="fill:#263238"></path><g style="opacity:0.30000000000000004"><path d="M217.5,438.08l-4.74-10.61a3.68,3.68,0,0,0,3,1.2c1.17-8.83,1.57-15.51-2.26-23.55,1.74,15.42-4.43,31-11.15,44.16,2.07.09,4.76-4.12,5.67-6s2.69-3.93,4.62-3.2c1.57.59,2.46,2.87,4.1,2.57a2.07,2.07,0,0,0,1.48-2A6.08,6.08,0,0,0,217.5,438.08Z"></path></g><path d="M216.36,433.29a11.64,11.64,0,0,1-2.83-3.61,16,16,0,0,1-1.9-4.17,26.74,26.74,0,0,1,2.35,3.91C215.23,431.59,216.47,433.2,216.36,433.29Z" style="fill:#263238"></path><path d="M276.1,440.77a2.43,2.43,0,0,1-.22.58c-.17.38-.37.95-.74,1.64a35.22,35.22,0,0,1-3.45,5.6,38,38,0,0,1-6.79,7,37.21,37.21,0,0,1-22.11,8.28,37.91,37.91,0,0,1-9.74-.83,35,35,0,0,1-6.28-1.95c-.73-.28-1.26-.58-1.63-.75a2.4,2.4,0,0,1-.55-.3,3.77,3.77,0,0,1,.59.21c.39.14.93.4,1.66.65a40.13,40.13,0,0,0,15.93,2.49,37.61,37.61,0,0,0,21.83-8.17,39.77,39.77,0,0,0,6.8-6.87,39,39,0,0,0,3.56-5.48c.39-.67.63-1.22.83-1.58A2.69,2.69,0,0,1,276.1,440.77Z" style="fill:#263238"></path><path d="M277.19,400.7c0,.05-.88-.45-2.55-1a20.52,20.52,0,0,0-7.37-.79,38.75,38.75,0,0,0-10.74,2.46c-3.95,1.36-8.19,3.23-12.93,4.34a29.16,29.16,0,0,1-7,.82,19.16,19.16,0,0,1-6.51-1.22c-4-1.57-6.95-4-9.52-5.81a47.32,47.32,0,0,0-6.28-4c-1.58-.79-2.52-1.08-2.5-1.13a3.52,3.52,0,0,1,.68.19,19.34,19.34,0,0,1,1.9.76,41.57,41.57,0,0,1,6.41,3.91c2.6,1.79,5.6,4.16,9.48,5.66s8.62,1.45,13.27.34,8.92-2.94,12.89-4.28a38.1,38.1,0,0,1,10.88-2.38,19.8,19.8,0,0,1,7.45,1,14.11,14.11,0,0,1,1.88.81A3.37,3.37,0,0,1,277.19,400.7Z" style="fill:#fff"></path><path d="M199.14,392.43v21.14s-5.34,13.42-7.4,21.5-7.39,28.62-7.39,28.62l7.39,6.57s12.88-24.78,16.16-33a97,97,0,0,0,4.71-15.4,57.9,57.9,0,0,0,1.46-10.21c.07-4.66-3.6-19.22-3.6-19.22Z" style="fill:#ffbe9d"></path><path d="M155,474.44s7.3-7.55,7.71-7.46,11.78-2.08,11.78-2.08l8-.66,2.11-.8,7.26,6.6s-.91,3.49-3,4.07-10.95,1-10.95,1l-2.82-.74-3.15.25s-4.89,2.48-5.89,2.48a5.19,5.19,0,0,1-2.07-.58s-.17-.91,1.49-1.9l2.9-1.75-7.3,3.24-6.13-.17Z" style="fill:#ffbe9d"></path><path d="M177.49,470.49c0,.08-.82,0-2.09.31a28.18,28.18,0,0,0-4.85,1.56,31,31,0,0,0-4.55,2.31c-1.12.68-1.73,1.21-1.79,1.15a5.31,5.31,0,0,1,1.58-1.46,22.81,22.81,0,0,1,4.56-2.48,20.94,20.94,0,0,1,5-1.44A4.38,4.38,0,0,1,177.49,470.49Z" style="fill:#eb996e"></path><path d="M173.44,467.55a13.73,13.73,0,0,1-2.73.63c-1.68.35-3.94,1.18-6.47,1.92l-.34.1.07,0c-2,1.55-3.8,3-5.1,4a14.14,14.14,0,0,1-2.16,1.61,14.27,14.27,0,0,1,1.93-1.88c1.24-1.11,3-2.63,5-4.19l0,0h0l.35-.11a63.19,63.19,0,0,1,6.56-1.78A16.71,16.71,0,0,1,173.44,467.55Z" style="fill:#eb996e"></path><polygon points="278.73 398.18 286.21 431.82 312.49 472.69 318.58 465.47 301.59 424.23 297.26 396.77 278.73 398.18" style="fill:#ffbe9d"></polygon><path d="M342.7,473.57l-13.89-8.09L317,465l-4.51,7.53s1.38,1.91,5.55,2.08,7.64,0,7.64,0,6.08,2.95,7.3,2.08a6.23,6.23,0,0,1,2.43-1s4.34,2.58,5,1.2a5.23,5.23,0,0,1,2.26-2.07Z" style="fill:#ffbe9d"></path><path d="M323.29,471a5.54,5.54,0,0,1,1.84-.32,8.57,8.57,0,0,1,2.05.07,5.3,5.3,0,0,1,2.36,1,35.55,35.55,0,0,1,4.69,4.28,41.16,41.16,0,0,1-5-3.86,6.88,6.88,0,0,0-4.1-1.08A8.26,8.26,0,0,1,323.29,471Z" style="fill:#eb996e"></path><path d="M324.87,468a1.86,1.86,0,0,1,.74-.09,9.25,9.25,0,0,1,2,.19,19.17,19.17,0,0,1,6.1,2.58c2.2,1.35,4.1,2.68,5.57,3.5s2.41,1.23,2.38,1.3a8.29,8.29,0,0,1-2.56-1c-1.53-.74-3.48-2-5.66-3.37a22.09,22.09,0,0,0-5.91-2.67C325.92,468,324.87,468,324.87,468Z" style="fill:#eb996e"></path><g style="opacity:0.30000000000000004"><path d="M276.1,440.77a22.65,22.65,0,0,1-6.53,13.06c-5.92,5.79-11.16,9.42-19.22,11.33s-19.09,1.52-24.5-4.75c0,0,14.11,5.6,25.87,1.78C270.32,456.16,276.1,440.77,276.1,440.77Z"></path></g></g></svg>